# xmcd CD database file
#
# Track frame offsets:
#	150
#	20657
#	41070
#	61938
#	80685
#	94075
#	103930
#	116191
#	128245
#	143443
#	157115
#	175395
#	195052
#	216069
#	227424
#	240267
#	254275
#	269997
#	282080
#	294921
#	308575
#
# Disc length: 4294 seconds
#
# Revision: 0
# Processed by: cddbd v1.5PL3 Copyright (c) Steve Scherf et al.
# Submitted via: CDex 1.60beta1
#
DISCID=2910c415
DTITLE=James P. Johnson - 1944-1945
DYEAR=1999
DGENRE=Jazz
TTITLE0=Tishomingo Blues
TTITLE1=Walkin' the Dog
TTITLE2=Easy Rider
TTITLE3=At the Ball
TTITLE4=Yellow Dog Blues
TTITLE5=Memphis Blues
TTITLE6=Loveless Blues
TTITLE7=Chantez Les Bas
TTITLE8=Joe Turner Blues
TTITLE9=St. Louis Blues
TTITLE10=Blue Moods 1
TTITLE11=Blue Moods 2
TTITLE12=Blue Moods, Sex
TTITLE13=Yamekraw- A Negro Rhapsody (Pt. 1)
TTITLE14=Yamekraw- A Negro Rhapsody (Pt. 2)
TTITLE15=Yamekraw- A Negro Rhapsody (Pt. 3)
TTITLE16=Yamekraw- A Negro Rhapsody (Pt. 4)
TTITLE17=Lorenzo's Blues (Morning After Blues)
TTITLE18=Harlem Hotcha
TTITLE19=Bandanna Days
TTITLE20=Creole Lullaby (Peephole Blues)
EXTD=YEAR: 1999
EXTT0=
EXTT1=
EXTT2=
EXTT3=
EXTT4=
EXTT5=
EXTT6=
EXTT7=
EXTT8=
EXTT9=
EXTT10=
EXTT11=
EXTT12=
EXTT13=
EXTT14=
EXTT15=
EXTT16=
EXTT17=
EXTT18=
EXTT19=
EXTT20=
PLAYORDER=
